<?xml version="1.0" encoding="UTF-8" standalone="no"?>
<!DOCTYPE svg PUBLIC "-//W3C//DTD SVG 1.1//EN" "http://www.w3.org/Graphics/SVG/1.1/DTD/svg11.dtd">
<svg width="100%" height="100%" viewBox="0 0 60 60" version="1.1" xmlns="http://www.w3.org/2000/svg" xmlns:xlink="http://www.w3.org/1999/xlink" xml:space="preserve" xmlns:serif="http://www.serif.com/" style="fill-rule:evenodd;clip-rule:evenodd;stroke-linejoin:round;stroke-miterlimit:2;">
    <path d="M33,42.997L31,42.997L31,49.997C31,50.546 30.549,50.997 30,50.997C29.451,50.997 29,50.546 29,49.997L29,42.997L27,42.997C26.452,42.999 26.002,43.449 26,43.997L26,54.997L34,54.997L34,43.997C33.998,43.449 33.548,42.999 33,42.997Z" style="fill:rgb(203,187,159);fill-rule:nonzero;"/>
    <path d="M33,26.997L33,31.997C33,32.549 32.552,32.997 32,32.997L28,32.997C27.448,32.997 27,32.549 27,31.997L27,26.997C27,26.445 27.448,25.997 28,25.997L32,25.997C32.552,25.997 33,26.445 33,26.997Z" style="fill:rgb(203,187,159);"/>
    <path d="M36,43.997L36,51.227C46.562,48.5 54,38.898 54,27.989C54,14.823 43.166,3.989 30,3.989C16.834,3.989 6,14.823 6,27.989C6,38.898 13.438,48.5 24,51.227L24,43.997C24.005,42.353 25.356,41.002 27,40.997L29,40.997L29,34.997L28,34.997C26.356,34.992 25.005,33.641 25,31.997L25,26.997C25.005,25.353 26.356,24.002 28,23.997L32,23.997C33.644,24.002 34.995,25.353 35,26.997L35,31.997C34.995,33.641 33.644,34.992 32,34.997L31,34.997L31,40.997L33,40.997C34.644,41.002 35.995,42.353 36,43.997ZM30,9.997C25.226,9.984 20.641,11.887 17.28,15.277C17.092,15.467 16.835,15.574 16.567,15.574C16.016,15.574 15.563,15.121 15.563,14.57C15.563,14.302 15.67,14.045 15.86,13.857C19.608,10.107 24.698,7.997 30,7.997C35.302,7.997 40.392,10.107 44.14,13.857C44.527,14.247 44.527,14.887 44.14,15.277C43.949,15.46 43.695,15.564 43.43,15.567C43.165,15.566 42.91,15.462 42.72,15.277C39.359,11.887 34.774,9.984 30,9.997L30,9.997Z" style="fill:rgb(203,187,159);fill-rule:nonzero;"/>
    <path d="M59.79,58.383L53.264,49.993L54.75,48.507C55.912,47.34 55.912,45.424 54.75,44.257L53.59,43.097C59.463,33.909 59.459,22.092 53.58,12.907L54.75,11.737C55.912,10.57 55.912,8.654 54.75,7.487L50.51,3.247C49.343,2.085 47.427,2.085 46.26,3.247L45.08,4.427C35.907,-1.465 24.087,-1.469 14.91,4.417L13.74,3.247C12.573,2.085 10.657,2.085 9.49,3.247L5.25,7.487C4.088,8.654 4.088,10.57 5.25,11.737L6.43,12.917C0.537,22.09 0.533,33.91 6.42,43.087L5.25,44.257C4.088,45.424 4.088,47.34 5.25,48.507L6.736,49.993L0.21,58.383C0.074,58.559 -0,58.775 -0,58.997C-0,59.546 0.451,59.997 1,59.997C1.308,59.997 1.6,59.854 1.79,59.611L8.161,51.418L9.49,52.747C10.662,53.9 12.568,53.9 13.74,52.747L14.92,51.567C17.692,53.366 20.769,54.644 24,55.337L24,53.297C20.919,52.571 17.999,51.279 15.39,49.487C15.38,49.477 15.36,49.467 15.35,49.457C15.335,49.439 15.313,49.429 15.29,49.427C13.229,48.006 11.38,46.299 9.8,44.357C9.37,43.837 8.95,43.267 8.55,42.687L8.52,42.657C2.51,33.85 2.506,22.198 8.51,13.387C8.53,13.347 8.56,13.317 8.57,13.287C10.364,10.648 12.641,8.371 15.28,6.577C15.309,6.564 15.336,6.547 15.36,6.527C15.37,6.517 15.39,6.507 15.4,6.487C15.41,6.477 15.43,6.467 15.44,6.457C15.461,6.45 15.478,6.435 15.49,6.417L15.5,6.407C24.294,0.503 35.857,0.543 44.61,6.507C44.62,6.517 44.64,6.527 44.65,6.537C44.67,6.547 44.69,6.567 44.71,6.567C47.349,8.361 49.626,10.638 51.42,13.277C51.44,13.297 51.45,13.327 51.47,13.347C51.48,13.366 51.494,13.383 51.51,13.397C51.52,13.417 51.52,13.427 51.54,13.437C51.547,13.458 51.562,13.475 51.58,13.487C57.49,22.292 57.458,33.865 51.5,42.637C51.475,42.653 51.457,42.678 51.45,42.707C51.04,43.287 50.62,43.847 50.2,44.357C48.625,46.298 46.78,48.002 44.72,49.417C44.693,49.432 44.666,49.449 44.64,49.467C44.63,49.477 44.61,49.487 44.6,49.497C41.992,51.284 39.077,52.572 36,53.297L36,55.337C39.231,54.644 42.308,53.366 45.08,51.567L46.26,52.747C47.432,53.9 49.338,53.9 50.51,52.747L51.839,51.418L58.21,59.611C58.4,59.854 58.692,59.997 59,59.997C59.549,59.997 60,59.546 60,58.997C60,58.775 59.926,58.559 59.79,58.383L59.79,58.383ZM13.24,50.407L12.32,51.327C11.929,51.705 11.301,51.705 10.91,51.327L6.67,47.087C6.286,46.699 6.286,46.065 6.67,45.677L7.58,44.767C7.8,45.057 8.02,45.337 8.24,45.617C9.699,47.417 11.379,49.026 13.24,50.407ZM7.59,11.237L6.67,10.317C6.286,9.929 6.286,9.295 6.67,8.907L10.91,4.667C11.301,4.289 11.929,4.289 12.32,4.667L13.23,5.577C11.082,7.176 9.182,9.084 7.59,11.237L7.59,11.237ZM46.76,5.587L47.68,4.667C48.071,4.289 48.699,4.289 49.09,4.667L53.33,8.907C53.714,9.295 53.714,9.929 53.33,10.317L52.42,11.227C50.821,9.079 48.913,7.179 46.76,5.587ZM49.09,51.327C48.699,51.705 48.071,51.705 47.68,51.327L46.76,50.407C48.623,49.029 50.303,47.419 51.76,45.617C51.98,45.337 52.2,45.057 52.42,44.767L53.33,45.677C53.714,46.065 53.714,46.699 53.33,47.087L49.09,51.327Z" style="fill:rgb(203,187,159);fill-rule:nonzero;"/>
</svg>
